# xmcd
#
# Track frame offsets:
#	150
#	17186
#	35873
#	47776
#	59728
#	74652
#	84723
#	105330
#	120794
#	141309
#	154720
#	169748
#	187802
#	205355
#	227641
#	247249
#	268301
#	285155
#	301818
#	317527
#
# Disc length: 4455 seconds
#
# Revision: 1
# Processed by: cddbd v1.5.2PL0 Copyright (c) Steve Scherf et al.
# Submitted via: audiograbber 1.83.01
#
DISCID=21116514
DTITLE=Various Artist - Soft Rock Ballads - CD3
DYEAR=2006
DGENRE=Ballad
TTITLE0=Bread - Guitar Man
TTITLE1=America - A Horse With No Name
TTITLE2=Sutherland Brothers And Quiver - Arms Of Mary
TTITLE3=England Dan And John Ford Coley - I'd Really Love To See You Tonight
TTITLE4=Jethro Tull - Life Is A Long Song
TTITLE5=Elvis Costello - New Amsterdam
TTITLE6=Faces - Debris
TTITLE7=Stealers Wheel - Stuck In The Middle With You
TTITLE8=Motors (The) - Airport
TTITLE9=Jellyfish - Baby's Coming Back
TTITLE10=Move (The) - Tonight
TTITLE11=Sniff N The Tears - Driver's Seat
TTITLE12=Babys (The) - Isn't It Time
TTITLE13=Band (The) - Like A Rolling Stone
TTITLE14=Family - My Friend The Sun
TTITLE15=Emerson Lake And Palmer - Lucky Man
TTITLE16=Caravan - The Land Of Grey And Pink
TTITLE17=Racing Cars - They Shoot Horses Don't They
TTITLE18=Deep Purple - When A Blind Man Cries
TTITLE19=Python Lee Jackson - In a Broken Dream
EXTD=
EXTT0=
EXTT1=
EXTT2=
EXTT3=
EXTT4=
EXTT5=
EXTT6=
EXTT7=
EXTT8=
EXTT9=
EXTT10=
EXTT11=
EXTT12=
EXTT13=
EXTT14=
EXTT15=
EXTT16=
EXTT17=
EXTT18=
EXTT19=
PLAYORDER=
